<?xml version="1.0" encoding="utf-8" standalone="no"?>
<!DOCTYPE svg PUBLIC "-//W3C//DTD SVG 1.1//EN"
  "http://www.w3.org/Graphics/SVG/1.1/DTD/svg11.dtd">
<!-- Created with matplotlib (https://matplotlib.org/) -->
<svg height="345.6pt" version="1.1" viewBox="0 0 460.8 345.6" width="460.8pt" xmlns="http://www.w3.org/2000/svg" xmlns:xlink="http://www.w3.org/1999/xlink">
 <defs>
  <style type="text/css">
*{stroke-linecap:butt;stroke-linejoin:round;}
  </style>
 </defs>
 <g id="figure_1">
  <g id="patch_1">
   <path d="M 0 345.6 
L 460.8 345.6 
L 460.8 0 
L 0 0 
z
" style="fill:#ffffff;"/>
  </g>
  <g id="axes_1">
   <g id="patch_2">
    <path d="M 57.6 307.584 
L 414.72 307.584 
L 414.72 41.472 
L 57.6 41.472 
z
" style="fill:#ffffff;"/>
   </g>
   <g id="matplotlib.axis_1">
    <g id="text_1">
     <!-- $T$ -->
     <defs>
      <path d="M 5.90625 72.90625 
L 67.578125 72.90625 
L 66.015625 64.59375 
L 39.984375 64.59375 
L 27.484375 0 
L 17.578125 0 
L 30.078125 64.59375 
L 4.296875 64.59375 
z
" id="DejaVuSans-Oblique-84"/>
     </defs>
     <g transform="translate(233.06 319.182437)scale(0.1 -0.1)">
      <use transform="translate(0 0.09375)" xlink:href="#DejaVuSans-Oblique-84"/>
     </g>
    </g>
   </g>
   <g id="matplotlib.axis_2"/>
   <g id="line2d_1">
    <path clip-path="url(#p178d732eab)" d="M 73.832727 165.677268 
L 77.145529 166.394862 
L 80.45833 167.102626 
L 83.771132 167.800559 
L 87.083933 168.488663 
L 90.396735 169.166936 
L 93.709536 169.83538 
L 97.022338 170.493993 
L 100.335139 171.142776 
L 103.647941 171.78173 
L 106.960742 172.410853 
L 110.273544 173.030146 
L 113.586345 173.639609 
L 116.899147 174.239242 
L 120.211948 174.829045 
L 123.52475 175.409018 
L 126.837551 175.979161 
L 130.150353 176.539474 
L 133.463154 177.089957 
L 136.775955 177.63061 
L 140.088757 178.161432 
L 143.401558 178.682425 
L 146.71436 179.193588 
L 150.027161 179.69492 
L 153.339963 180.186423 
L 156.652764 180.668095 
L 159.965566 181.139938 
L 163.278367 181.60195 
L 166.591169 182.054132 
L 169.90397 182.496485 
L 173.216772 182.929007 
L 176.529573 183.351699 
L 179.842375 183.764561 
L 183.155176 184.167593 
L 186.467978 184.560795 
L 189.780779 184.944167 
L 193.093581 185.317709 
L 196.406382 185.681421 
L 199.719184 186.035303 
L 203.031985 186.379355 
L 206.344787 186.713576 
L 209.657588 187.037968 
L 212.97039 187.35253 
L 216.283191 187.657261 
L 219.595993 187.952163 
L 222.908794 188.237234 
L 226.221596 188.512476 
L 229.534397 188.777887 
L 232.847199 189.033468 
L 236.16 189.27922 
" style="fill:none;stroke:#1f77b4;stroke-linecap:square;stroke-width:1.5;"/>
   </g>
   <g id="line2d_2">
    <path clip-path="url(#p178d732eab)" d="M 236.16 189.27922 
L 236.16 271.886049 
" style="fill:none;stroke:#1f77b4;stroke-dasharray:5.55,2.4;stroke-dashoffset:0;stroke-width:1.5;"/>
   </g>
   <g id="line2d_3">
    <path clip-path="url(#p178d732eab)" d="M 236.16 271.886049 
L 239.472801 272.1318 
L 242.785603 272.387381 
L 246.098404 272.652793 
L 249.411206 272.928034 
L 252.724007 273.213106 
L 256.036809 273.508007 
L 259.34961 273.812739 
L 262.662412 274.1273 
L 265.975213 274.451692 
L 269.288015 274.785914 
L 272.600816 275.129965 
L 275.913618 275.483847 
L 279.226419 275.847559 
L 282.539221 276.221101 
L 285.852022 276.604473 
L 289.164824 276.997675 
L 292.477625 277.400707 
L 295.790427 277.813569 
L 299.103228 278.236261 
L 302.41603 278.668784 
L 305.728831 279.111136 
L 309.041633 279.563318 
L 312.354434 280.025331 
L 315.667236 280.497173 
L 318.980037 280.978845 
L 322.292839 281.470348 
L 325.60564 281.971681 
L 328.918442 282.482843 
L 332.231243 283.003836 
L 335.544045 283.534659 
L 338.856846 284.075311 
L 342.169647 284.625794 
L 345.482449 285.186107 
L 348.79525 285.75625 
L 352.108052 286.336223 
L 355.420853 286.926026 
L 358.733655 287.525659 
L 362.046456 288.135122 
L 365.359258 288.754415 
L 368.672059 289.383539 
L 371.984861 290.022492 
L 375.297662 290.671275 
L 378.610464 291.329889 
L 381.923265 291.998332 
L 385.236067 292.676606 
L 388.548868 293.364709 
L 391.86167 294.062643 
L 395.174471 294.770406 
L 398.487273 295.488 
" style="fill:none;stroke:#1f77b4;stroke-linecap:square;stroke-width:1.5;"/>
   </g>
   <g id="line2d_4">
    <path clip-path="url(#p178d732eab)" d="M 73.832727 53.568 
L 77.145529 54.767266 
L 80.45833 55.956702 
L 83.771132 57.136308 
L 87.083933 58.306084 
L 90.396735 59.46603 
L 93.709536 60.616146 
L 97.022338 61.756432 
L 100.335139 62.886888 
L 103.647941 64.007514 
L 106.960742 65.118309 
L 110.273544 66.219275 
L 113.586345 67.310411 
L 116.899147 68.391716 
L 120.211948 69.463192 
L 123.52475 70.524837 
L 126.837551 71.576652 
L 130.150353 72.618638 
L 133.463154 73.650793 
L 136.775955 74.673118 
L 140.088757 75.685614 
L 143.401558 76.688279 
L 146.71436 77.681114 
L 150.027161 78.664119 
L 153.339963 79.637294 
L 156.652764 80.600639 
L 159.965566 81.554154 
L 163.278367 82.497839 
L 166.591169 83.431693 
L 169.90397 84.355718 
L 173.216772 85.269913 
L 176.529573 86.174277 
L 179.842375 87.068812 
L 183.155176 87.953517 
L 186.467978 88.828391 
L 189.780779 89.693436 
L 193.093581 90.54865 
L 196.406382 91.394034 
L 199.719184 92.229589 
L 203.031985 93.055313 
L 206.344787 93.871207 
L 209.657588 94.677271 
L 212.97039 95.473505 
L 216.283191 96.259909 
L 219.595993 97.036483 
L 222.908794 97.803227 
L 226.221596 98.560141 
L 229.534397 99.307225 
L 232.847199 100.044479 
L 236.16 100.771902 
" style="fill:none;stroke:#ff7f0e;stroke-linecap:square;stroke-width:1.5;"/>
   </g>
   <g id="line2d_5">
    <path clip-path="url(#p178d732eab)" d="M 236.16 100.771902 
L 239.472801 103.18518 
L 242.785603 105.608287 
L 246.098404 108.041225 
L 249.411206 110.483992 
L 252.724007 112.93659 
L 256.036809 115.399018 
L 259.34961 117.871275 
L 262.662412 120.353363 
L 265.975213 122.845281 
L 269.288015 125.347029 
L 272.600816 127.858607 
L 275.913618 130.380015 
L 279.226419 132.911253 
L 282.539221 135.452321 
L 285.852022 138.003219 
L 289.164824 140.563947 
L 292.477625 143.134505 
L 295.790427 145.714893 
L 299.103228 148.305112 
L 302.41603 150.90516 
L 305.728831 153.515038 
L 309.041633 156.134747 
L 312.354434 158.764285 
L 315.667236 161.403654 
L 318.980037 164.052852 
L 322.292839 166.711881 
L 325.60564 169.38074 
L 328.918442 172.059429 
L 332.231243 174.747947 
L 335.544045 177.446296 
L 338.856846 180.154475 
L 342.169647 182.872484 
L 345.482449 185.600323 
L 348.79525 188.337992 
L 352.108052 191.085491 
L 355.420853 193.84282 
L 358.733655 196.60998 
L 362.046456 199.386969 
L 365.359258 202.173788 
L 368.672059 204.970438 
L 371.984861 207.776917 
L 375.297662 210.593226 
L 378.610464 213.419366 
L 381.923265 216.255336 
L 385.236067 219.101135 
L 388.548868 221.956765 
L 391.86167 224.822225 
L 395.174471 227.697514 
L 398.487273 230.582634 
" style="fill:none;stroke:#ff7f0e;stroke-linecap:square;stroke-width:1.5;"/>
   </g>
   <g id="patch_3">
    <path d="M 57.6 307.584 
L 57.6 41.472 
" style="fill:none;stroke:#000000;stroke-linecap:square;stroke-linejoin:miter;stroke-width:0.8;"/>
   </g>
   <g id="patch_4">
    <path d="M 414.72 307.584 
L 414.72 41.472 
" style="fill:none;stroke:#000000;stroke-linecap:square;stroke-linejoin:miter;stroke-width:0.8;"/>
   </g>
   <g id="patch_5">
    <path d="M 57.6 307.584 
L 414.72 307.584 
" style="fill:none;stroke:#000000;stroke-linecap:square;stroke-linejoin:miter;stroke-width:0.8;"/>
   </g>
   <g id="patch_6">
    <path d="M 57.6 41.472 
L 414.72 41.472 
" style="fill:none;stroke:#000000;stroke-linecap:square;stroke-linejoin:miter;stroke-width:0.8;"/>
   </g>
   <g id="legend_1">
    <g id="patch_7">
     <path d="M 369.40125 78.82825 
L 407.72 78.82825 
Q 409.72 78.82825 409.72 76.82825 
L 409.72 48.472 
Q 409.72 46.472 407.72 46.472 
L 369.40125 46.472 
Q 367.40125 46.472 367.40125 48.472 
L 367.40125 76.82825 
Q 367.40125 78.82825 369.40125 78.82825 
z
" style="fill:#ffffff;opacity:0.8;stroke:#cccccc;stroke-linejoin:miter;"/>
    </g>
    <g id="line2d_6">
     <path d="M 371.40125 54.570437 
L 391.40125 54.570437 
" style="fill:none;stroke:#1f77b4;stroke-linecap:square;stroke-width:1.5;"/>
    </g>
    <g id="line2d_7"/>
    <g id="text_2">
     <!-- E -->
     <defs>
      <path d="M 9.8125 72.90625 
L 55.90625 72.90625 
L 55.90625 64.59375 
L 19.671875 64.59375 
L 19.671875 43.015625 
L 54.390625 43.015625 
L 54.390625 34.71875 
L 19.671875 34.71875 
L 19.671875 8.296875 
L 56.78125 8.296875 
L 56.78125 0 
L 9.8125 0 
z
" id="DejaVuSans-69"/>
     </defs>
     <g transform="translate(399.40125 58.070437)scale(0.1 -0.1)">
      <use xlink:href="#DejaVuSans-69"/>
     </g>
    </g>
    <g id="line2d_8">
     <path d="M 371.40125 69.248562 
L 391.40125 69.248562 
" style="fill:none;stroke:#ff7f0e;stroke-linecap:square;stroke-width:1.5;"/>
    </g>
    <g id="line2d_9"/>
    <g id="text_3">
     <!-- F -->
     <defs>
      <path d="M 9.8125 72.90625 
L 51.703125 72.90625 
L 51.703125 64.59375 
L 19.671875 64.59375 
L 19.671875 43.109375 
L 48.578125 43.109375 
L 48.578125 34.8125 
L 19.671875 34.8125 
L 19.671875 0 
L 9.8125 0 
z
" id="DejaVuSans-70"/>
     </defs>
     <g transform="translate(399.40125 72.748562)scale(0.1 -0.1)">
      <use xlink:href="#DejaVuSans-70"/>
     </g>
    </g>
   </g>
  </g>
 </g>
 <defs>
  <clipPath id="p178d732eab">
   <rect height="266.112" width="357.12" x="57.6" y="41.472"/>
  </clipPath>
 </defs>
</svg>
