<?xml version="1.0" encoding="UTF-8" standalone="no"?>
<!DOCTYPE svg PUBLIC "-//W3C//DTD SVG 1.0//EN" "http://www.w3.org/TR/2001/PR-SVG-20010719/DTD/svg10.dtd">
<svg width="7cm" height="8cm" viewBox="93 72 134 150" xmlns="http://www.w3.org/2000/svg" xmlns:xlink="http://www.w3.org/1999/xlink">
  <g id="Background">
    <g>
      <line style="fill: none; stroke-opacity: 1; stroke-width: 2; stroke: #000000" x1="100" y1="101" x2="101.015" y2="84.0123"/>
      <polygon style="fill: #000000; fill-opacity: 1; stroke-opacity: 1; stroke-width: 2; stroke: #000000" fill-rule="evenodd" points="101.463,76.5257 105.857,86.8061 101.015,84.0123 95.875,86.2096 "/>
    </g>
    <line style="fill: none; stroke-opacity: 1; stroke-width: 2; stroke-dasharray: 4; stroke: #000000" x1="99.1716" y1="100.707" x2="221.096" y2="100.633"/>
    <line style="fill: none; stroke-opacity: 1; stroke-width: 2; stroke-dasharray: 4; stroke: #000000" x1="98.6368" y1="140.952" x2="220.562" y2="140.878"/>
    <line style="fill: none; stroke-opacity: 1; stroke-width: 2; stroke-dasharray: 4; stroke: #000000" x1="99.344" y1="180.55" x2="221.27" y2="180.476"/>
    <line style="fill: none; stroke-opacity: 1; stroke-width: 2; stroke-dasharray: 4; stroke: #000000" x1="100.051" y1="220.148" x2="221.976" y2="220.074"/>
    <line style="fill: none; stroke-opacity: 1; stroke-width: 2; stroke-dasharray: 4; stroke: #000000" x1="219.682" y1="99.9262" x2="218.976" y2="218.72"/>
    <line style="fill: none; stroke-opacity: 1; stroke-width: 2; stroke-dasharray: 4; stroke: #000000" x1="101.471" y1="99.1644" x2="100.763" y2="217.958"/>
    <line style="fill: none; stroke-opacity: 1; stroke-width: 2; stroke-dasharray: 4; stroke: #000000" x1="140.361" y1="101.993" x2="139.654" y2="220.786"/>
    <line style="fill: none; stroke-opacity: 1; stroke-width: 2; stroke-dasharray: 4; stroke: #000000" x1="181.374" y1="100.579" x2="180.666" y2="219.372"/>
    <g>
      <line style="fill: none; stroke-opacity: 1; stroke-width: 2; stroke: #000000" x1="139.482" y1="100.997" x2="140.497" y2="84.0095"/>
      <polygon style="fill: #000000; fill-opacity: 1; stroke-opacity: 1; stroke-width: 2; stroke: #000000" fill-rule="evenodd" points="140.945,76.5229 145.339,86.8033 140.497,84.0095 135.357,86.2068 "/>
    </g>
    <g>
      <line style="fill: none; stroke-opacity: 1; stroke-width: 2; stroke: #000000" x1="180.777" y1="99.9366" x2="181.792" y2="82.9489"/>
      <polygon style="fill: #000000; fill-opacity: 1; stroke-opacity: 1; stroke-width: 2; stroke: #000000" fill-rule="evenodd" points="182.24,75.4623 186.634,85.7427 181.792,82.9489 176.652,85.1462 "/>
    </g>
    <g>
      <line style="fill: none; stroke-opacity: 1; stroke-width: 2; stroke: #000000" x1="218.678" y1="100.997" x2="219.693" y2="84.0095"/>
      <polygon style="fill: #000000; fill-opacity: 1; stroke-opacity: 1; stroke-width: 2; stroke: #000000" fill-rule="evenodd" points="220.141,76.5229 224.535,86.8033 219.693,84.0095 214.553,86.2068 "/>
    </g>
    <g>
      <line style="fill: none; stroke-opacity: 1; stroke-width: 2; stroke: #000000" x1="100.591" y1="180.549" x2="101.606" y2="163.562"/>
      <polygon style="fill: #000000; fill-opacity: 1; stroke-opacity: 1; stroke-width: 2; stroke: #000000" fill-rule="evenodd" points="102.054,156.075 106.448,166.356 101.606,163.562 96.4662,165.759 "/>
    </g>
    <g>
      <line style="fill: none; stroke-opacity: 1; stroke-width: 2; stroke: #000000" x1="140.073" y1="180.547" x2="140.33" y2="164.639"/>
      <polygon style="fill: #000000; fill-opacity: 1; stroke-opacity: 1; stroke-width: 2; stroke: #000000" fill-rule="evenodd" points="140.451,157.14 145.289,167.219 140.33,164.639 135.29,167.058 "/>
    </g>
    <g>
      <line style="fill: none; stroke-opacity: 1; stroke-width: 2; stroke: #000000" x1="181.368" y1="179.486" x2="182.383" y2="162.498"/>
      <polygon style="fill: #000000; fill-opacity: 1; stroke-opacity: 1; stroke-width: 2; stroke: #000000" fill-rule="evenodd" points="182.831,155.012 187.225,165.292 182.383,162.498 177.243,164.696 "/>
    </g>
    <g>
      <line style="fill: none; stroke-opacity: 1; stroke-width: 2; stroke: #000000" x1="219.27" y1="180.547" x2="219.538" y2="162.517"/>
      <polygon style="fill: #000000; fill-opacity: 1; stroke-opacity: 1; stroke-width: 2; stroke: #000000" fill-rule="evenodd" points="219.649,155.018 224.5,165.091 219.538,162.517 214.501,164.943 "/>
    </g>
    <g>
      <line style="fill: none; stroke-opacity: 1; stroke-width: 2; stroke: #000000" x1="100.591" y1="140.951" x2="101.606" y2="123.964"/>
      <polygon style="fill: #000000; fill-opacity: 1; stroke-opacity: 1; stroke-width: 2; stroke: #000000" fill-rule="evenodd" points="102.054,116.477 106.448,126.758 101.606,123.964 96.4662,126.161 "/>
    </g>
    <g>
      <line style="fill: none; stroke-opacity: 1; stroke-width: 2; stroke: #000000" x1="140.073" y1="140.949" x2="140.33" y2="125.041"/>
      <polygon style="fill: #000000; fill-opacity: 1; stroke-opacity: 1; stroke-width: 2; stroke: #000000" fill-rule="evenodd" points="140.451,117.542 145.289,127.621 140.33,125.041 135.29,127.46 "/>
    </g>
    <g>
      <line style="fill: none; stroke-opacity: 1; stroke-width: 2; stroke: #000000" x1="181.368" y1="139.888" x2="182.383" y2="122.9"/>
      <polygon style="fill: #000000; fill-opacity: 1; stroke-opacity: 1; stroke-width: 2; stroke: #000000" fill-rule="evenodd" points="182.831,115.414 187.225,125.694 182.383,122.9 177.243,125.098 "/>
    </g>
    <g>
      <line style="fill: none; stroke-opacity: 1; stroke-width: 2; stroke: #000000" x1="219.27" y1="140.949" x2="219.538" y2="122.919"/>
      <polygon style="fill: #000000; fill-opacity: 1; stroke-opacity: 1; stroke-width: 2; stroke: #000000" fill-rule="evenodd" points="219.649,115.42 224.5,125.493 219.538,122.919 214.501,125.345 "/>
    </g>
    <g>
      <line style="fill: none; stroke-opacity: 1; stroke-width: 2; stroke: #000000" x1="100.591" y1="220.148" x2="101.606" y2="203.16"/>
      <polygon style="fill: #000000; fill-opacity: 1; stroke-opacity: 1; stroke-width: 2; stroke: #000000" fill-rule="evenodd" points="102.054,195.673 106.448,205.954 101.606,203.16 96.4662,205.357 "/>
    </g>
    <g>
      <line style="fill: none; stroke-opacity: 1; stroke-width: 2; stroke: #000000" x1="140.073" y1="220.144" x2="140.33" y2="204.236"/>
      <polygon style="fill: #000000; fill-opacity: 1; stroke-opacity: 1; stroke-width: 2; stroke: #000000" fill-rule="evenodd" points="140.451,196.737 145.289,206.817 140.33,204.236 135.29,206.655 "/>
    </g>
    <g>
      <line style="fill: none; stroke-opacity: 1; stroke-width: 2; stroke: #000000" x1="181.368" y1="219.084" x2="182.383" y2="202.096"/>
      <polygon style="fill: #000000; fill-opacity: 1; stroke-opacity: 1; stroke-width: 2; stroke: #000000" fill-rule="evenodd" points="182.831,194.61 187.225,204.89 182.383,202.096 177.243,204.294 "/>
    </g>
    <g>
      <line style="fill: none; stroke-opacity: 1; stroke-width: 2; stroke: #000000" x1="219.27" y1="220.144" x2="219.538" y2="202.115"/>
      <polygon style="fill: #000000; fill-opacity: 1; stroke-opacity: 1; stroke-width: 2; stroke: #000000" fill-rule="evenodd" points="219.649,194.616 224.5,204.689 219.538,202.115 214.501,204.541 "/>
    </g>
  </g>
</svg>
